<?xml version="1.0" encoding="UTF-8" standalone="no"?>
<!-- Created with Inkscape (http://www.inkscape.org/) -->

<svg
   width="100mm"
   height="100mm"
   viewBox="0 0 100 100"
   version="1.1"
   id="svg5"
   inkscape:version="1.1.1 (1:1.1+202109281944+c3084ef5ed)"
   sodipodi:docname="logo-color.svg"
   inkscape:export-filename="/home/arun/Documents/Personal/React/intell-id-tools/public/logo512.png"
   inkscape:export-xdpi="96"
   inkscape:export-ydpi="96"
   xmlns:inkscape="http://www.inkscape.org/namespaces/inkscape"
   xmlns:sodipodi="http://sodipodi.sourceforge.net/DTD/sodipodi-0.dtd"
   xmlns="http://www.w3.org/2000/svg"
   xmlns:svg="http://www.w3.org/2000/svg">
  <sodipodi:namedview
     id="namedview7"
     pagecolor="#505050"
     bordercolor="#eeeeee"
     borderopacity="1"
     inkscape:pageshadow="0"
     inkscape:pageopacity="0"
     inkscape:pagecheckerboard="0"
     inkscape:document-units="mm"
     showgrid="false"
     showborder="false"
     inkscape:zoom="0.70710678"
     inkscape:cx="163.34167"
     inkscape:cy="305.47013"
     inkscape:window-width="1366"
     inkscape:window-height="668"
     inkscape:window-x="0"
     inkscape:window-y="27"
     inkscape:window-maximized="1"
     inkscape:current-layer="text33621"
     showguides="true"
     inkscape:guide-bbox="true" />
  <defs
     id="defs2">
    <rect
       x="-75.476875"
       y="89.614548"
       width="45.109531"
       height="46.633118"
       id="rect33623" />
  </defs>
  <g
     inkscape:groupmode="layer"
     id="layer1"
     inkscape:label="Layer 1">
    <rect
       style="fill:none;stroke-width:1.77519"
       id="rect933"
       width="161.00006"
       height="161.00006"
       x="26.429848"
       y="44.761135"
       inkscape:export-filename="/home/arun/Documents/Personal/React/intellidtools/public/favico.png"
       inkscape:export-xdpi="96"
       inkscape:export-ydpi="96" />
  </g>
  <g
     inkscape:groupmode="layer"
     id="layer2"
     inkscape:label="Logo">
    <rect
       style="display:inline;fill:#000080;fill-opacity:1;stroke:none;stroke-width:2.50117"
       id="rect29265"
       width="100"
       height="100"
       x="0"
       y="0"
       inkscape:export-filename="/home/arun/Documents/Personal/React/intell-id-tools/public/logo512.png"
       inkscape:export-xdpi="96"
       inkscape:export-ydpi="96" />
    <path
       id="rect390"
       style="display:inline;fill:#d40000;fill-opacity:1;stroke-width:2.50117"
       d="M 79.375,0 H 100 v 100 h -3.1625 z"
       sodipodi:nodetypes="ccccc"
       inkscape:export-filename="/home/arun/Documents/Personal/React/intell-id-tools/public/logo512.png"
       inkscape:export-xdpi="96"
       inkscape:export-ydpi="96" />
    <g
       aria-label="ID"
       transform="matrix(4.9334222,0,0,4.9181766,376.54202,-427.70134)"
       id="text33621"
       style="font-weight:bold;font-size:14.434px;line-height:1.25;-inkscape-font-specification:'sans-serif Bold';white-space:pre;shape-inside:url(#rect33623);display:inline"
       inkscape:export-filename="/home/arun/Documents/Personal/React/intell-id-tools/public/logo512.png"
       inkscape:export-xdpi="96"
       inkscape:export-ydpi="96">
      <path
         id="path833"
         style="fill:#ffffff;stroke-width:24.5884"
         d="m 385.23242,323.99609 v 50.02344 c 22.44058,1.49697 39.91354,8.07686 52.41992,19.74024 14.34793,13.38074 21.52344,32.87636 21.52344,58.48437 0,25.72337 -7.23168,45.33196 -21.69531,58.82813 -14.34792,13.49615 -35.17705,20.24414 -62.48438,20.24414 H 351.04492 V 408.32422 h -66.82226 v 173.34375 h 70.46679 c 38.87823,0 68.03746,-2.76978 87.47657,-8.30664 19.4391,-5.65223 36.10123,-15.16817 49.98632,-28.54883 12.14944,-11.65046 21.175,-25.08795 27.07618,-40.31445 5.90115,-15.34175 8.85156,-32.75952 8.85156,-52.25391 0,-19.26367 -2.95041,-36.50994 -8.85156,-51.73633 -5.90118,-15.2264 -14.92674,-28.66396 -27.07618,-40.31445 -13.76937,-13.38075 -30.31527,-22.84008 -49.63867,-28.37695 -13.85484,-4.07705 -32.95103,-6.68412 -57.28125,-7.82032 z"
         transform="matrix(0.05363079,0,0,0.05379704,-87.971976,72.78141)"
         sodipodi:nodetypes="ccsscsccccscccssccc" />
      <rect
         style="fill:#ffaa00;fill-opacity:1;stroke-width:0.429778"
         id="rect1057"
         width="3.6464996"
         height="2.8324609"
         x="-72.662346"
         y="90.186104" />
    </g>
  </g>
</svg>
